<?xml version="1.0" encoding="utf-8"?>
<!-- Generator: Adobe Illustrator 24.1.0, SVG Export Plug-In . SVG Version: 6.00 Build 0)  -->
<svg version="1.1" xmlns="http://www.w3.org/2000/svg" xmlns:xlink="http://www.w3.org/1999/xlink" x="0px" y="0px"
	 viewBox="0 0 549.5 546.2" style="enable-background:new 0 0 549.5 546.2;" xml:space="preserve">
<style type="text/css">
	.st2{fill:#E0963E;}
	.st3{fill:rgba(0,0,0,0);}
	.st4{fill:#E0963E;}
	.st5{fill:#2bdbdc;}
	.st6{fill:#2bdbdc;}
</style><!--5-DB9767-4-71DB84-->
<g id="Capa_1">
	<g>
		<g>
			<path class="st2" d="M309.1,318.8c-0.8,0-1.6-0.3-2.1-0.9l-40.5-40.5c-0.6-0.6-0.9-1.3-0.9-2.1s0.3-1.6,0.9-2.1l11.1-10.8
				c0.6-0.6,1.3-0.8,2.1-0.8c0.8,0,1.5,0.3,2.1,0.9l40.4,40.4c1.2,1.2,1.2,3.1,0,4.2l-11,11C310.7,318.5,309.9,318.8,309.1,318.8
				L309.1,318.8z"/>
			<path class="st3" d="M279.7,264.4l40.4,40.4l-11,11l-40.5-40.5L279.7,264.4 M279.7,258.4c-1.5,0-3,0.6-4.2,1.7l-11.1,10.8
				c-1.2,1.1-1.8,2.7-1.8,4.3c0,1.6,0.6,3.1,1.8,4.3l40.5,40.5c1.2,1.2,2.7,1.8,4.2,1.8s3.1-0.6,4.2-1.8l11-11
				c1.1-1.1,1.8-2.7,1.8-4.2c0-1.6-0.6-3.1-1.8-4.2l-40.4-40.4C282.8,259,281.2,258.4,279.7,258.4L279.7,258.4z"/>
		</g>
		<g>
			<g>
				<path class="st2" d="M144,467.1c-0.8,0-1.5-0.3-2.1-0.8l-62.6-60.1c-0.7-0.6-1-1.6-0.9-2.5s0.6-1.8,1.4-2.2l15.1-9.1
					c0.5-0.3,1-0.4,1.5-0.4c0.8,0,1.5,0.3,2.1,0.9l52.7,52.7c0.8,0.8,1.1,2,0.7,3l-5.2,16.5c-0.3,1-1.1,1.7-2.1,2
					C144.5,467.1,144.2,467.1,144,467.1z"/>
				<path class="st3" d="M96.5,394.9l52.7,52.7l-5.2,16.5L81.4,404L96.5,394.9 M96.5,388.9c-1.1,0-2.1,0.3-3.1,0.9l-15.1,9.1
					c-1.6,1-2.7,2.6-2.9,4.5c-0.2,1.9,0.5,3.7,1.8,5l62.6,60.1c1.1,1.1,2.6,1.7,4.2,1.7c0.5,0,1-0.1,1.5-0.2c2-0.5,3.6-2,4.2-4
					l5.2-16.5c0.7-2.1,0.1-4.5-1.5-6l-52.7-52.7C99.6,389.5,98.1,388.9,96.5,388.9L96.5,388.9z"/>
			</g>
			<g>
				<path class="st2" d="M114.6,502.4c-0.7,0-1.5-0.3-2.1-0.8l-73-69.8c-0.6-0.6-0.9-1.3-0.9-2.2s0.3-1.6,0.9-2.2l12.4-11.8
					c0.6-0.6,1.3-0.8,2.1-0.8s1.5,0.3,2.1,0.8l73,69.8c0.6,0.6,0.9,1.3,0.9,2.2s-0.3,1.6-0.9,2.2l-12.4,11.8
					C116.1,502.1,115.3,502.4,114.6,502.4z"/>
				<path class="st3" d="M54,417.8l73,69.8l-12.4,11.9l-73-69.8L54,417.8 M54,411.8c-1.5,0-3,0.6-4.1,1.7l-12.4,11.9
					c-1.2,1.1-1.9,2.7-1.9,4.3c0,1.6,0.7,3.2,1.9,4.3l73,69.8c1.2,1.1,2.7,1.7,4.1,1.7s3-0.6,4.1-1.7l12.4-11.9
					c1.2-1.1,1.9-2.7,1.9-4.3c0-1.6-0.7-3.2-1.9-4.3l-73-69.8C57,412.3,55.5,411.8,54,411.8L54,411.8z"/>
			</g>
			<g>
				<path class="st2" d="M449.1,157.9c-0.8,0-1.6-0.3-2.2-0.9l-60-62.9c-1.1-1.2-1.1-3,0-4.1l12.5-13.1c0.6-0.6,1.4-0.9,2.2-0.9l0,0
					c0.8,0,1.6,0.3,2.2,0.9l60,62.9c1.1,1.2,1.1,3,0,4.1L451.2,157C450.7,157.6,449.9,157.9,449.1,157.9L449.1,157.9z"/>
				<path class="st3" d="M401.6,78.9l60,62.9l-12.5,13.1l-60-62.9L401.6,78.9 M401.6,72.9c-1.6,0-3.2,0.7-4.3,1.9l-12.5,13.1
					c-2.2,2.3-2.2,6,0,8.3l60,62.9c1.1,1.2,2.7,1.9,4.3,1.9c1.6,0,3.2-0.7,4.3-1.9l12.5-13.1c2.2-2.3,2.2-6,0-8.3l-60-62.9
					C404.8,73.6,403.2,72.9,401.6,72.9L401.6,72.9z"/>
			</g>
			<g>
				<path class="st2" d="M491,131.9c-0.8,0-1.6-0.3-2.2-0.9l-70.5-74.4c-1.1-1.1-1.1-2.9,0-4.1L430,39.6c0.6-0.6,1.4-1,2.2-1
					c0,0,0,0,0,0c0.8,0,1.6,0.3,2.2,0.9l70.5,74.4c1.1,1.1,1.1,2.9,0,4.1l-11.7,12.9C492.6,131.5,491.8,131.8,491,131.9
					C491,131.9,491,131.9,491,131.9z"/>
				<path class="st3" d="M432.2,41.6l70.5,74.4L491,128.9l-70.5-74.4L432.2,41.6 M432.2,35.6C432.2,35.6,432.2,35.6,432.2,35.6
					c-1.7,0-3.3,0.7-4.4,2l-11.7,12.9c-2.1,2.3-2.1,5.9,0.1,8.2l70.5,74.4c1.1,1.2,2.7,1.9,4.4,1.9c0,0,0,0,0.1,0
					c1.7,0,3.3-0.7,4.4-2l11.7-12.9c2.1-2.3,2.1-5.9-0.1-8.2l-70.5-74.4C435.4,36.3,433.9,35.6,432.2,35.6L432.2,35.6z"/>
			</g>
			<g>
				<path class="st2" d="M354,273.9c-0.8,0-1.5-0.3-2.1-0.9l-80.8-80.8c-0.6-0.6-0.9-1.3-0.9-2.1s0.3-1.6,0.9-2.1l11-11
					c0.6-0.6,1.4-0.9,2.1-0.9s1.5,0.3,2.1,0.9l80.8,80.8c0.6,0.6,0.9,1.3,0.9,2.1s-0.3,1.6-0.9,2.1l-11,11
					C355.6,273.6,354.8,273.9,354,273.9z"/>
				<path class="st3" d="M284.2,179.1l80.8,80.8l-11,11l-80.8-80.8L284.2,179.1 M284.2,173.1c-1.5,0-3.1,0.6-4.2,1.8l-11,11
					c-1.1,1.1-1.8,2.7-1.8,4.2c0,1.6,0.6,3.1,1.8,4.2l80.8,80.8c1.2,1.2,2.7,1.8,4.2,1.8c1.5,0,3.1-0.6,4.2-1.8l11-11
					c2.3-2.3,2.3-6.1,0-8.5l-80.8-80.8C287.3,173.7,285.8,173.1,284.2,173.1L284.2,173.1z"/>
			</g>
			<g>
				<path class="st2" d="M265.2,362.6c-0.8,0-1.5-0.3-2.1-0.9L182.3,281c-0.6-0.6-0.9-1.3-0.9-2.1s0.3-1.6,0.9-2.1l11-11
					c0.6-0.6,1.4-0.9,2.1-0.9c0.8,0,1.5,0.3,2.1,0.9l80.8,80.8c0.6,0.6,0.9,1.3,0.9,2.1s-0.3,1.6-0.9,2.1l-11,11
					C266.8,362.3,266,362.6,265.2,362.6z"/>
				<path class="st3" d="M195.5,267.9l80.8,80.8l-11,11l-80.8-80.8L195.5,267.9 M195.5,261.9c-1.5,0-3.1,0.6-4.2,1.8l-11,11
					c-1.1,1.1-1.8,2.7-1.8,4.2c0,1.6,0.6,3.1,1.8,4.2l80.8,80.8c1.2,1.2,2.7,1.8,4.2,1.8s3.1-0.6,4.2-1.8l11-11
					c1.1-1.1,1.8-2.7,1.8-4.2s-0.6-3.1-1.8-4.2l-80.8-80.8C198.5,262.5,197,261.9,195.5,261.9L195.5,261.9z"/>
			</g>
		</g>
		<g>
			<path class="st4" d="M123.5,529.9c-5.4,0-10.5-2.1-14.3-5.9c-3.8-3.8-5.9-8.9-5.9-14.3c0-5.4,2.1-10.5,5.9-14.3
				c42.7-42.7,42.6-83.8,42.6-131.5c0-34.7,0-73.9,19.9-113.2c0.5-1,1.6-1.6,2.7-1.6c0.4,0,0.7,0.1,1.1,0.2l32.3,12.2
				c0.8,0.3,1.5,1,1.8,1.8c0.3,0.8,0.2,1.7-0.2,2.5c-17.1,31.2-17.1,62.2-17.1,98.1c0,49.5,0,105.5-54.4,160
				C134,527.8,128.9,529.9,123.5,529.9z"/>
			<path class="st3" d="M174.5,252.2l32.3,12.2c-17.5,31.9-17.5,63.9-17.5,99.6c0,48.9,0,104.3-53.6,157.9c-3.4,3.4-7.8,5-12.1,5
				s-8.8-1.7-12.1-5h0c-6.7-6.7-6.7-17.6,0-24.3c43.5-43.5,43.5-85.3,43.5-133.6C154.9,329.1,154.9,290.8,174.5,252.2 M174.5,246.2
				c-2.2,0-4.3,1.2-5.4,3.3c-20.2,39.9-20.2,79.5-20.2,114.5c0,23.6,0,45.9-5.2,67.1c-5.8,23.3-17.4,43.1-36.5,62.2
				c-4.4,4.4-6.8,10.2-6.8,16.4s2.4,12,6.8,16.4c4.4,4.4,10.2,6.8,16.4,6.8c6.2,0,12-2.4,16.4-6.8c24.7-24.7,40.6-52,48.5-83.5
				c6.9-27.4,6.9-53.4,6.9-78.6c0-35.5,0-66.2,16.7-96.7c0.8-1.5,1-3.3,0.4-5c-0.6-1.6-1.9-2.9-3.5-3.5l-32.3-12.2
				C175.9,246.3,175.2,246.2,174.5,246.2L174.5,246.2z"/>
		</g>
		<g>
			<path class="st4" d="M265.2,208.3c-0.3,0-0.5,0-0.8-0.1c-0.8-0.2-1.4-0.7-1.8-1.4l-16.9-29.8c-0.4-0.7-0.5-1.5-0.3-2.3
				c0.2-0.8,0.7-1.4,1.4-1.8c41.3-23.3,83.3-23.3,117-23.3l5.2,0c44.3,0,86.1,0,128.7-42.6c3.8-3.8,8.9-5.9,14.3-5.9
				c5.4,0,10.5,2.1,14.3,5.9c3.8,3.8,5.9,8.9,5.9,14.3s-2.1,10.5-5.9,14.3c-54.4,54.4-111.6,54.4-157.5,54.4l-5.2,0
				c-32.1,0-65.3,0-96.9,17.9C266.2,208.1,265.7,208.3,265.2,208.3z"/>
			<path class="st3" d="M512.1,104c4.4,0,8.8,1.7,12.1,5c6.7,6.7,6.7,17.6,0,24.3c-52.7,52.7-107.1,53.6-155.4,53.6
				c-0.8,0-1.7,0-2.5,0c-0.9,0-1.8,0-2.7,0c-35.2,0-66.9,0.4-98.4,18.3l-16.9-29.8c39.7-22.4,79.4-22.9,115.5-22.9
				c0.8,0,1.7,0,2.5,0c0.9,0,1.8,0,2.7,0c47.2,0,88.1-0.8,130.9-43.5C503.3,105.7,507.7,104,512.1,104 M512.1,98
				c-6.2,0-12,2.4-16.4,6.8c-18.8,18.8-38.2,30.3-61,36.2c-20,5.1-39.8,5.5-65.6,5.5l-2.7,0l-0.4,0l-2.2,0
				c-34.1,0-76.5,0-118.5,23.7c-1.4,0.8-2.4,2.1-2.8,3.6c-0.4,1.5-0.2,3.2,0.6,4.6l16.9,29.8c0.8,1.4,2.1,2.4,3.6,2.8
				c0.5,0.1,1.1,0.2,1.6,0.2c1,0,2-0.3,3-0.8c31-17.6,62.3-17.6,95.5-17.6l2.7,0l0.4,0l2.1,0c22.2,0,49.7,0,77.5-7.2
				c30.9-8,57.7-23.7,82.1-48.1c9-9,9-23.7,0-32.8C524.1,100.4,518.3,98,512.1,98L512.1,98z"/>
		</g>
		<g>
			<path class="st5" d="M34.4,440.8c-5.4,0-10.5-2.1-14.3-5.9c-7.9-7.9-7.9-20.7,0-28.5c54.4-54.4,111.6-54.4,157.5-54.4l5.2,0
				c44.3,0,86.1,0,128.7-42.6c42.7-42.7,42.6-83.8,42.6-131.5c0-49.5,0-105.5,54.4-160c3.8-3.8,8.9-5.9,14.3-5.9
				c5.4,0,10.5,2.1,14.3,5.9c7.9,7.9,7.9,20.7,0,28.5c-42.7,42.7-42.6,83.8-42.6,131.5c0,49.5,0,105.5-54.4,160
				c-54.4,54.4-111.6,54.4-157.6,54.4l-5.2,0c-44.3,0-86.1,0-128.7,42.6C44.9,438.7,39.8,440.8,34.4,440.8z"/>
			<path class="st3" d="M423,14.9c4.4,0,8.8,1.7,12.1,5c6.7,6.7,6.7,17.6,0,24.3c-43.5,43.5-43.5,85.3-43.5,133.6
				c0,48.9,0,104.3-53.6,157.9c-52.7,52.7-107.1,53.6-155.4,53.6c-0.8,0-1.7,0-2.5,0c-0.9,0-1.8,0-2.7,0
				c-47.2,0-88.1,0.8-130.8,43.5c-3.4,3.4-7.8,5-12.1,5s-8.8-1.7-12.1-5c-6.7-6.7-6.7-17.6,0-24.3c52.7-52.7,107.1-53.6,155.4-53.6
				c0.8,0,1.7,0,2.5,0c0.9,0,1.8,0,2.7,0c47.2,0,88.1-0.8,130.8-43.5c43.5-43.5,43.5-85.3,43.5-133.6c0-48.9,0-104.3,53.6-157.9
				C414.2,16.6,418.6,14.9,423,14.9 M423,8.9c-6.2,0-12,2.4-16.4,6.8c-24.7,24.7-40.6,52-48.5,83.5c-6.9,27.4-6.9,53.4-6.9,78.6
				c0,23.6,0,45.9-5.2,67.1c-5.8,23.3-17.4,43.1-36.5,62.2c-18.8,18.8-38.2,30.3-61,36.2c-20,5.1-39.8,5.5-65.6,5.5l-2.3,0l-0.5,0
				l-2.5,0c-22.2,0-49.7,0-77.5,7.2c-30.9,8-57.7,23.7-82.1,48.1c-9,9-9,23.7,0,32.8c4.4,4.4,10.2,6.8,16.4,6.8
				c6.2,0,12-2.4,16.4-6.8c18.8-18.8,38.2-30.3,61-36.2c20-5.1,39.8-5.5,65.6-5.5l2.3,0l0.5,0l2.5,0c22.2,0,49.7,0,77.5-7.2
				c30.9-8,57.7-23.7,82.1-48.1c24.7-24.7,40.6-52,48.5-83.5c6.9-27.4,6.9-53.4,6.9-78.6c0-23.6,0-45.9,5.2-67.1
				c5.8-23.3,17.4-43.1,36.5-62.2c9-9,9-23.7,0-32.8C435,11.3,429.2,8.9,423,8.9L423,8.9z"/>
		</g>
	</g>
</g>
<g id="Layer_2">
	<g>
		<g>
			<path class="st2" d="M219.6,236.8c-0.5,0-1-0.1-1.4-0.4L159,204.2c-0.7-0.4-1.3-1.1-1.5-1.9s0-1.7,0.4-2.4l11.4-17
				c0.6-0.9,1.5-1.3,2.5-1.3c0.6,0,1.1,0.2,1.6,0.5l55.6,36.4c1.4,0.9,1.8,2.7,0.9,4.1l-7.8,12.8
				C221.6,236.2,220.7,236.8,219.6,236.8z"/>
			<path class="st3" d="M171.9,184.6l55.6,36.4l-7.8,12.8l-59.2-32.2L171.9,184.6 M171.9,178.6c-1.9,0-3.8,0.9-5,2.7l-11.4,17
				c-0.9,1.4-1.3,3.1-0.8,4.8c0.4,1.6,1.5,3,3,3.8l59.2,32.2c0.9,0.5,1.9,0.7,2.9,0.7c2,0,4-1,5.1-2.9l7.8-12.8
				c1.7-2.8,0.9-6.4-1.8-8.2l-55.6-36.4C174.1,178.9,173,178.6,171.9,178.6L171.9,178.6z"/>
		</g>
		<g>
			<path class="st6" d="M145,243c-0.1,0-0.2,0-0.3,0l-37.7-3.8c-0.8-0.1-1.6-0.5-2.1-1.2c-0.5-0.7-0.7-1.6-0.5-2.4
				c4.6-21.7,12.8-42.7,25.1-64c10.7-18.6,27.6-36,39.9-46.1c0.6-0.5,1.2-0.7,1.9-0.7c0.8,0,1.6,0.3,2.2,0.9l24.5,26
				c0.6,0.6,0.9,1.4,0.8,2.3c-0.1,0.8-0.5,1.6-1.1,2.1c-7.3,5.9-16.4,14.1-31.5,37.2c-15.6,23.8-17.1,37.2-18.1,46l-0.1,0.9
				C147.8,241.9,146.5,243,145,243z"/>
			<path class="st3" d="M171.3,127.9l24.5,26c-8.4,6.7-17.4,15.4-32.1,37.9C147.2,217,146.1,230.7,145,240l-37.7-3.8
				c4.2-20,12-40.9,24.8-63.1C143.2,154,160.4,136.8,171.3,127.9 M171.3,121.9c-1.3,0-2.7,0.5-3.8,1.4c-12.4,10.3-29.6,28-40.6,46.9
				c-12.5,21.6-20.8,42.8-25.5,64.8c-0.4,1.7,0,3.4,1,4.8c1,1.4,2.5,2.3,4.2,2.4l37.7,3.8c0.2,0,0.4,0,0.6,0c3,0,5.6-2.3,6-5.3
				l0.1-0.9c1-9.1,2.4-21.5,17.6-44.7c14.9-22.8,23.7-30.8,30.9-36.6c1.3-1,2.1-2.6,2.2-4.3c0.1-1.7-0.5-3.3-1.6-4.5l-24.5-26
				C174.5,122.5,172.9,121.9,171.3,121.9L171.3,121.9z"/>
		</g>
	</g>
</g>
</svg>
